<mxfile host="Electron" modified="2023-07-09T13:49:52.254Z" agent="Mozilla/5.0 (Windows NT 10.0; Win64; x64) AppleWebKit/537.36 (KHTML, like Gecko) draw.io/21.4.0 Chrome/112.0.5615.204 Electron/24.5.1 Safari/537.36" etag="vwv5TR-wB4gDRrg9M7TI" version="21.4.0" type="device">
  <diagram name="第 1 页" id="vdQun1F7ZL3N76Iq1YSy">
    <mxGraphModel dx="2044" dy="1174" grid="1" gridSize="10" guides="1" tooltips="1" connect="1" arrows="1" fold="1" page="1" pageScale="1" pageWidth="4681" pageHeight="3300" math="0" shadow="0">
      <root>
        <mxCell id="0" />
        <mxCell id="1" parent="0" />
        <mxCell id="P2BZUPTsN1z5nsz8BTKi-17" style="edgeStyle=orthogonalEdgeStyle;rounded=0;orthogonalLoop=1;jettySize=auto;html=1;entryX=0.5;entryY=0;entryDx=0;entryDy=0;" parent="1" source="P2BZUPTsN1z5nsz8BTKi-1" target="P2BZUPTsN1z5nsz8BTKi-2" edge="1">
          <mxGeometry relative="1" as="geometry" />
        </mxCell>
        <mxCell id="P2BZUPTsN1z5nsz8BTKi-1" value="&lt;font style=&quot;font-size: 10px;&quot;&gt;1/2&lt;/font&gt;" style="rounded=0;whiteSpace=wrap;html=1;fillColor=#d5e8d4;strokeColor=#82b366;" parent="1" vertex="1">
          <mxGeometry x="510" y="440" width="130" height="10" as="geometry" />
        </mxCell>
        <mxCell id="P2BZUPTsN1z5nsz8BTKi-11" style="edgeStyle=orthogonalEdgeStyle;rounded=0;orthogonalLoop=1;jettySize=auto;html=1;entryX=-0.021;entryY=0.5;entryDx=0;entryDy=0;entryPerimeter=0;" parent="1" source="P2BZUPTsN1z5nsz8BTKi-2" target="P2BZUPTsN1z5nsz8BTKi-10" edge="1">
          <mxGeometry relative="1" as="geometry" />
        </mxCell>
        <mxCell id="P2BZUPTsN1z5nsz8BTKi-18" style="edgeStyle=orthogonalEdgeStyle;rounded=0;orthogonalLoop=1;jettySize=auto;html=1;entryX=0.5;entryY=-0.078;entryDx=0;entryDy=0;entryPerimeter=0;" parent="1" source="P2BZUPTsN1z5nsz8BTKi-2" target="P2BZUPTsN1z5nsz8BTKi-4" edge="1">
          <mxGeometry relative="1" as="geometry" />
        </mxCell>
        <mxCell id="P2BZUPTsN1z5nsz8BTKi-2" value="1/4" style="rounded=0;whiteSpace=wrap;html=1;fillColor=#d5e8d4;strokeColor=#82b366;" parent="1" vertex="1">
          <mxGeometry x="520" y="470" width="110" height="20" as="geometry" />
        </mxCell>
        <mxCell id="P2BZUPTsN1z5nsz8BTKi-12" style="edgeStyle=orthogonalEdgeStyle;rounded=0;orthogonalLoop=1;jettySize=auto;html=1;" parent="1" source="P2BZUPTsN1z5nsz8BTKi-4" target="P2BZUPTsN1z5nsz8BTKi-9" edge="1">
          <mxGeometry relative="1" as="geometry" />
        </mxCell>
        <mxCell id="P2BZUPTsN1z5nsz8BTKi-19" style="edgeStyle=orthogonalEdgeStyle;rounded=0;orthogonalLoop=1;jettySize=auto;html=1;entryX=0.5;entryY=0;entryDx=0;entryDy=0;" parent="1" source="P2BZUPTsN1z5nsz8BTKi-4" target="P2BZUPTsN1z5nsz8BTKi-5" edge="1">
          <mxGeometry relative="1" as="geometry" />
        </mxCell>
        <mxCell id="P2BZUPTsN1z5nsz8BTKi-4" value="1/8" style="rounded=0;whiteSpace=wrap;html=1;fillColor=#d5e8d4;strokeColor=#82b366;" parent="1" vertex="1">
          <mxGeometry x="530" y="510" width="90" height="30" as="geometry" />
        </mxCell>
        <mxCell id="P2BZUPTsN1z5nsz8BTKi-13" style="edgeStyle=orthogonalEdgeStyle;rounded=0;orthogonalLoop=1;jettySize=auto;html=1;entryX=0;entryY=0.5;entryDx=0;entryDy=0;" parent="1" source="P2BZUPTsN1z5nsz8BTKi-5" target="P2BZUPTsN1z5nsz8BTKi-8" edge="1">
          <mxGeometry relative="1" as="geometry" />
        </mxCell>
        <mxCell id="P2BZUPTsN1z5nsz8BTKi-21" style="edgeStyle=orthogonalEdgeStyle;rounded=0;orthogonalLoop=1;jettySize=auto;html=1;entryX=0.5;entryY=0;entryDx=0;entryDy=0;" parent="1" source="P2BZUPTsN1z5nsz8BTKi-5" target="P2BZUPTsN1z5nsz8BTKi-6" edge="1">
          <mxGeometry relative="1" as="geometry" />
        </mxCell>
        <mxCell id="P2BZUPTsN1z5nsz8BTKi-5" value="1/16" style="rounded=0;whiteSpace=wrap;html=1;fillColor=#d5e8d4;strokeColor=#82b366;" parent="1" vertex="1">
          <mxGeometry x="540" y="560" width="70" height="40" as="geometry" />
        </mxCell>
        <mxCell id="P2BZUPTsN1z5nsz8BTKi-15" style="edgeStyle=orthogonalEdgeStyle;rounded=0;orthogonalLoop=1;jettySize=auto;html=1;entryX=0;entryY=0.5;entryDx=0;entryDy=0;exitX=0.5;exitY=1;exitDx=0;exitDy=0;" parent="1" source="P2BZUPTsN1z5nsz8BTKi-6" target="P2BZUPTsN1z5nsz8BTKi-14" edge="1">
          <mxGeometry relative="1" as="geometry" />
        </mxCell>
        <mxCell id="P2BZUPTsN1z5nsz8BTKi-6" value="1/32" style="rounded=0;whiteSpace=wrap;html=1;fillColor=#d5e8d4;strokeColor=#82b366;" parent="1" vertex="1">
          <mxGeometry x="550" y="620" width="50" height="50" as="geometry" />
        </mxCell>
        <mxCell id="P2BZUPTsN1z5nsz8BTKi-22" style="edgeStyle=orthogonalEdgeStyle;rounded=0;orthogonalLoop=1;jettySize=auto;html=1;entryX=0.5;entryY=1;entryDx=0;entryDy=0;" parent="1" source="P2BZUPTsN1z5nsz8BTKi-7" target="P2BZUPTsN1z5nsz8BTKi-8" edge="1">
          <mxGeometry relative="1" as="geometry" />
        </mxCell>
        <mxCell id="P2BZUPTsN1z5nsz8BTKi-7" value="1/32" style="rounded=0;whiteSpace=wrap;html=1;fillColor=#ffe6cc;strokeColor=#d79b00;" parent="1" vertex="1">
          <mxGeometry x="720" y="620" width="50" height="50" as="geometry" />
        </mxCell>
        <mxCell id="P2BZUPTsN1z5nsz8BTKi-23" style="edgeStyle=orthogonalEdgeStyle;rounded=0;orthogonalLoop=1;jettySize=auto;html=1;entryX=0.5;entryY=1;entryDx=0;entryDy=0;" parent="1" source="P2BZUPTsN1z5nsz8BTKi-8" target="P2BZUPTsN1z5nsz8BTKi-9" edge="1">
          <mxGeometry relative="1" as="geometry" />
        </mxCell>
        <mxCell id="P2BZUPTsN1z5nsz8BTKi-8" value="1/16" style="rounded=0;whiteSpace=wrap;html=1;fillColor=#ffe6cc;strokeColor=#d79b00;" parent="1" vertex="1">
          <mxGeometry x="710" y="560" width="70" height="40" as="geometry" />
        </mxCell>
        <mxCell id="P2BZUPTsN1z5nsz8BTKi-24" style="edgeStyle=orthogonalEdgeStyle;rounded=0;orthogonalLoop=1;jettySize=auto;html=1;entryX=0.5;entryY=1;entryDx=0;entryDy=0;" parent="1" source="P2BZUPTsN1z5nsz8BTKi-9" target="P2BZUPTsN1z5nsz8BTKi-10" edge="1">
          <mxGeometry relative="1" as="geometry" />
        </mxCell>
        <mxCell id="P2BZUPTsN1z5nsz8BTKi-9" value="1/8" style="rounded=0;whiteSpace=wrap;html=1;fillColor=#ffe6cc;strokeColor=#d79b00;" parent="1" vertex="1">
          <mxGeometry x="700" y="510" width="90" height="30" as="geometry" />
        </mxCell>
        <mxCell id="P2BZUPTsN1z5nsz8BTKi-25" style="edgeStyle=orthogonalEdgeStyle;rounded=0;orthogonalLoop=1;jettySize=auto;html=1;" parent="1" source="P2BZUPTsN1z5nsz8BTKi-10" edge="1">
          <mxGeometry relative="1" as="geometry">
            <mxPoint x="745" y="450" as="targetPoint" />
          </mxGeometry>
        </mxCell>
        <mxCell id="P2BZUPTsN1z5nsz8BTKi-10" value="1/4" style="rounded=0;whiteSpace=wrap;html=1;fillColor=#ffe6cc;strokeColor=#d79b00;" parent="1" vertex="1">
          <mxGeometry x="690" y="470" width="110" height="20" as="geometry" />
        </mxCell>
        <mxCell id="P2BZUPTsN1z5nsz8BTKi-16" style="edgeStyle=orthogonalEdgeStyle;rounded=0;orthogonalLoop=1;jettySize=auto;html=1;entryX=0.5;entryY=1;entryDx=0;entryDy=0;" parent="1" source="P2BZUPTsN1z5nsz8BTKi-14" target="P2BZUPTsN1z5nsz8BTKi-7" edge="1">
          <mxGeometry relative="1" as="geometry" />
        </mxCell>
        <mxCell id="P2BZUPTsN1z5nsz8BTKi-14" value="AVG" style="rounded=0;whiteSpace=wrap;html=1;fillColor=#dae8fc;strokeColor=#6c8ebf;" parent="1" vertex="1">
          <mxGeometry x="640" y="670" width="40" height="40" as="geometry" />
        </mxCell>
        <mxCell id="P2BZUPTsN1z5nsz8BTKi-26" value="&lt;font style=&quot;font-size: 8px;&quot;&gt;4X&lt;/font&gt;" style="text;strokeColor=none;fillColor=none;html=1;fontSize=11;fontStyle=1;verticalAlign=middle;align=center;fontFamily=Helvetica;fontColor=default;" parent="1" vertex="1">
          <mxGeometry x="746" y="457" width="40" height="10" as="geometry" />
        </mxCell>
        <mxCell id="P2BZUPTsN1z5nsz8BTKi-33" style="edgeStyle=orthogonalEdgeStyle;rounded=0;orthogonalLoop=1;jettySize=auto;html=1;entryX=0.5;entryY=0;entryDx=0;entryDy=0;" parent="1" source="P2BZUPTsN1z5nsz8BTKi-34" target="P2BZUPTsN1z5nsz8BTKi-36" edge="1">
          <mxGeometry relative="1" as="geometry" />
        </mxCell>
        <mxCell id="P2BZUPTsN1z5nsz8BTKi-34" value="&lt;font style=&quot;font-size: 10px;&quot;&gt;1/2&lt;/font&gt;" style="rounded=0;whiteSpace=wrap;html=1;fillColor=#d5e8d4;strokeColor=#82b366;" parent="1" vertex="1">
          <mxGeometry x="880" y="440" width="130" height="10" as="geometry" />
        </mxCell>
        <mxCell id="P2BZUPTsN1z5nsz8BTKi-35" style="edgeStyle=orthogonalEdgeStyle;rounded=0;orthogonalLoop=1;jettySize=auto;html=1;entryX=0.5;entryY=-0.078;entryDx=0;entryDy=0;entryPerimeter=0;" parent="1" source="P2BZUPTsN1z5nsz8BTKi-36" target="P2BZUPTsN1z5nsz8BTKi-38" edge="1">
          <mxGeometry relative="1" as="geometry" />
        </mxCell>
        <mxCell id="P2BZUPTsN1z5nsz8BTKi-36" value="1/4" style="rounded=0;whiteSpace=wrap;html=1;fillColor=#d5e8d4;strokeColor=#82b366;" parent="1" vertex="1">
          <mxGeometry x="890" y="470" width="110" height="20" as="geometry" />
        </mxCell>
        <mxCell id="P2BZUPTsN1z5nsz8BTKi-37" style="edgeStyle=orthogonalEdgeStyle;rounded=0;orthogonalLoop=1;jettySize=auto;html=1;entryX=0.5;entryY=0;entryDx=0;entryDy=0;" parent="1" source="P2BZUPTsN1z5nsz8BTKi-38" target="P2BZUPTsN1z5nsz8BTKi-40" edge="1">
          <mxGeometry relative="1" as="geometry" />
        </mxCell>
        <mxCell id="P2BZUPTsN1z5nsz8BTKi-38" value="1/8" style="rounded=0;whiteSpace=wrap;html=1;fillColor=#d5e8d4;strokeColor=#82b366;" parent="1" vertex="1">
          <mxGeometry x="900" y="510" width="90" height="30" as="geometry" />
        </mxCell>
        <mxCell id="P2BZUPTsN1z5nsz8BTKi-39" style="edgeStyle=orthogonalEdgeStyle;rounded=0;orthogonalLoop=1;jettySize=auto;html=1;entryX=0.5;entryY=0;entryDx=0;entryDy=0;" parent="1" source="P2BZUPTsN1z5nsz8BTKi-40" target="P2BZUPTsN1z5nsz8BTKi-42" edge="1">
          <mxGeometry relative="1" as="geometry" />
        </mxCell>
        <mxCell id="P2BZUPTsN1z5nsz8BTKi-40" value="1/16" style="rounded=0;whiteSpace=wrap;html=1;fillColor=#d5e8d4;strokeColor=#82b366;" parent="1" vertex="1">
          <mxGeometry x="910" y="560" width="70" height="40" as="geometry" />
        </mxCell>
        <mxCell id="P2BZUPTsN1z5nsz8BTKi-56" style="edgeStyle=orthogonalEdgeStyle;rounded=0;orthogonalLoop=1;jettySize=auto;html=1;entryX=0.5;entryY=0;entryDx=0;entryDy=0;" parent="1" source="P2BZUPTsN1z5nsz8BTKi-42" target="P2BZUPTsN1z5nsz8BTKi-52" edge="1">
          <mxGeometry relative="1" as="geometry" />
        </mxCell>
        <mxCell id="P2BZUPTsN1z5nsz8BTKi-42" value="1/32" style="rounded=0;whiteSpace=wrap;html=1;fillColor=#d5e8d4;strokeColor=#82b366;" parent="1" vertex="1">
          <mxGeometry x="920" y="620" width="50" height="50" as="geometry" />
        </mxCell>
        <mxCell id="P2BZUPTsN1z5nsz8BTKi-43" style="edgeStyle=orthogonalEdgeStyle;rounded=0;orthogonalLoop=1;jettySize=auto;html=1;entryX=0.5;entryY=0;entryDx=0;entryDy=0;" parent="1" source="P2BZUPTsN1z5nsz8BTKi-44" target="P2BZUPTsN1z5nsz8BTKi-46" edge="1">
          <mxGeometry relative="1" as="geometry" />
        </mxCell>
        <mxCell id="P2BZUPTsN1z5nsz8BTKi-44" value="&lt;font style=&quot;font-size: 10px;&quot;&gt;1/2&lt;/font&gt;" style="rounded=0;whiteSpace=wrap;html=1;fillColor=#d5e8d4;strokeColor=#82b366;" parent="1" vertex="1">
          <mxGeometry x="1090" y="440" width="130" height="10" as="geometry" />
        </mxCell>
        <mxCell id="P2BZUPTsN1z5nsz8BTKi-45" style="edgeStyle=orthogonalEdgeStyle;rounded=0;orthogonalLoop=1;jettySize=auto;html=1;entryX=0.5;entryY=-0.078;entryDx=0;entryDy=0;entryPerimeter=0;" parent="1" source="P2BZUPTsN1z5nsz8BTKi-46" target="P2BZUPTsN1z5nsz8BTKi-47" edge="1">
          <mxGeometry relative="1" as="geometry" />
        </mxCell>
        <mxCell id="P2BZUPTsN1z5nsz8BTKi-46" value="1/4" style="rounded=0;whiteSpace=wrap;html=1;fillColor=#d5e8d4;strokeColor=#82b366;" parent="1" vertex="1">
          <mxGeometry x="1100" y="470" width="110" height="20" as="geometry" />
        </mxCell>
        <mxCell id="P2BZUPTsN1z5nsz8BTKi-53" style="edgeStyle=orthogonalEdgeStyle;rounded=0;orthogonalLoop=1;jettySize=auto;html=1;entryX=1;entryY=0.5;entryDx=0;entryDy=0;exitX=0.5;exitY=1;exitDx=0;exitDy=0;" parent="1" source="P2BZUPTsN1z5nsz8BTKi-47" target="P2BZUPTsN1z5nsz8BTKi-50" edge="1">
          <mxGeometry relative="1" as="geometry" />
        </mxCell>
        <mxCell id="P2BZUPTsN1z5nsz8BTKi-47" value="1/8" style="rounded=0;whiteSpace=wrap;html=1;fillColor=#d5e8d4;strokeColor=#82b366;" parent="1" vertex="1">
          <mxGeometry x="1110" y="510" width="90" height="30" as="geometry" />
        </mxCell>
        <mxCell id="P2BZUPTsN1z5nsz8BTKi-50" value="1/8" style="rounded=0;whiteSpace=wrap;html=1;fillColor=#d5e8d4;strokeColor=#82b366;" parent="1" vertex="1">
          <mxGeometry x="1010" y="700" width="80" height="20" as="geometry" />
        </mxCell>
        <mxCell id="P2BZUPTsN1z5nsz8BTKi-55" style="edgeStyle=orthogonalEdgeStyle;rounded=0;orthogonalLoop=1;jettySize=auto;html=1;entryX=0;entryY=0.5;entryDx=0;entryDy=0;" parent="1" source="P2BZUPTsN1z5nsz8BTKi-52" target="P2BZUPTsN1z5nsz8BTKi-50" edge="1">
          <mxGeometry relative="1" as="geometry" />
        </mxCell>
        <mxCell id="P2BZUPTsN1z5nsz8BTKi-52" value="&lt;span style=&quot;font-size: 8px;&quot;&gt;Context&lt;br&gt;Module&lt;br&gt;&lt;/span&gt;" style="rounded=0;whiteSpace=wrap;html=1;fillColor=#dae8fc;strokeColor=#6c8ebf;" parent="1" vertex="1">
          <mxGeometry x="925" y="690" width="40" height="40" as="geometry" />
        </mxCell>
        <mxCell id="P2BZUPTsN1z5nsz8BTKi-58" value="" style="endArrow=none;html=1;rounded=0;dashed=1;" parent="1" edge="1">
          <mxGeometry width="50" height="50" relative="1" as="geometry">
            <mxPoint x="840" y="740" as="sourcePoint" />
            <mxPoint x="840" y="427" as="targetPoint" />
          </mxGeometry>
        </mxCell>
        <mxCell id="P2BZUPTsN1z5nsz8BTKi-59" value="（a)Encoder-Decoder Backbone" style="text;strokeColor=none;fillColor=none;html=1;fontSize=11;fontStyle=1;verticalAlign=middle;align=center;fontFamily=Helvetica;fontColor=default;" parent="1" vertex="1">
          <mxGeometry x="560" y="760" width="200" height="40" as="geometry" />
        </mxCell>
        <mxCell id="P2BZUPTsN1z5nsz8BTKi-60" value="（b)Two-Pathway Backbone" style="text;strokeColor=none;fillColor=none;html=1;fontSize=11;fontStyle=1;verticalAlign=middle;align=center;fontFamily=Helvetica;fontColor=default;" parent="1" vertex="1">
          <mxGeometry x="950" y="760" width="200" height="40" as="geometry" />
        </mxCell>
      </root>
    </mxGraphModel>
  </diagram>
</mxfile>
